<svg xmlns="http://www.w3.org/2000/svg" fill="#005292" viewBox="0 0 1024 1024"><path d="M512 992.077c-264.697 0-480.05-215.353-480.05-480.05S247.302 31.975 512 31.975s480.05 215.353 480.05 480.05S776.698 992.076 512 992.076m0-980.068c-275.71 0-500.018 224.307-500.018 500.018 0 275.7 224.307 500.007 500.018 500.007s500.007-224.307 500.007-500.007c0-275.71-224.296-500.018-500.007-500.018"/><path d="M512.008 181.977c-3.482 0-6.952.069-10.4.183-5.29.193-9.57 4.37-9.866 9.65v.067c-.285 5.017-4.144 9.116-9.15 9.583a315 315 0 0 0-22.616 2.933c-4.938.82-9.713-2.144-11.283-6.9l-.017-.1c-1.672-5.063-6.95-7.962-12.15-6.733a329 329 0 0 0-19.866 5.366c-5.086 1.548-8.18 6.706-7.1 11.917l.017.033c1.024 4.904-1.651 9.865-6.35 11.617a311 311 0 0 0-21.083 8.7c-4.55 2.082-9.957.47-12.7-3.717-2.866-4.392-8.635-5.952-13.265-3.483-6.178 3.322-12.244 6.802-18.183 10.5-4.46 2.764-5.972 8.545-3.616 13.233 2.252 4.47.99 9.953-3.084 12.866a320 320 0 0 0-18.066 13.916c-3.857 3.209-9.506 3.062-13.25-.283l-.017-.033c-3.914-3.504-9.894-3.53-13.717.067a327 327 0 0 0-14.866 14.866c-3.584 3.823-3.57 9.802-.067 13.717l.033.017c3.345 3.743 3.508 9.38.3 13.25a320 320 0 0 0-13.933 18.066c-2.912 4.073-8.39 5.336-12.85 3.083h-.017c-4.687-2.366-10.451-.843-13.216 3.617a338 338 0 0 0-10.516 18.182c-2.48 4.631-.909 10.4 3.483 13.267 4.198 2.742 5.815 8.132 3.733 12.682a303 303 0 0 0-8.716 21.1c-1.752 4.699-6.702 7.373-11.617 6.35l-.033-.018c-5.21-1.08-10.352 2.014-11.9 7.1a329 329 0 0 0-5.382 19.866c-1.218 5.2 1.67 10.478 6.733 12.15l.1.018c4.756 1.57 7.73 6.356 6.9 11.283a314 314 0 0 0-2.934 22.616c-.466 4.995-4.577 8.865-9.583 9.15h-.067c-5.279.295-9.467 4.57-9.65 9.85-.125 3.458-.183 6.917-.183 10.399s.058 6.952.184 10.4c.182 5.29 4.37 9.559 9.65 9.866h.066c5.006.285 9.117 4.138 9.583 9.133a315 315 0 0 0 2.934 22.633c.83 4.927-2.144 9.713-6.9 11.284l-.1.017a10.1 10.1 0 0 0-4.45 2.95c13.267-5.381 27.368-10.335 42.166-14.866a281.6 281.6 0 0 1 12.65-148.812v-47.116c-.001-15.167 12.431-27.615 27.599-27.615h13.75c53.32-69.037 135.63-109.464 222.861-109.464a281.57 281.57 0 0 1 161.412 50.847c8.665-5.932 19.31-9.066 30.649-9.066 2.853 0 5.658.195 8.4.583a10 10 0 0 1-1.684-1.133 320 320 0 0 0-18.066-13.916c-4.073-2.913-5.336-8.395-3.083-12.867 2.355-4.687.843-10.468-3.617-13.233-5.939-3.698-12.004-7.178-18.182-10.5-4.63-2.469-10.4-.908-13.266 3.483-2.742 4.187-8.149 5.799-12.7 3.717a311 311 0 0 0-21.082-8.7c-4.7-1.752-7.374-6.713-6.35-11.616l.016-.033c1.081-5.211-2.014-10.37-7.1-11.917a329 329 0 0 0-19.866-5.367c-5.2-1.228-10.477 1.67-12.15 6.734l-.016.1c-1.57 4.756-6.345 7.719-11.283 6.9a315 315 0 0 0-22.616-2.934c-5.007-.466-8.866-4.565-9.15-9.583v-.067c-.296-5.279-4.576-9.456-9.867-9.65a314 314 0 0 0-10.383-.183zm218.926 86.697a10.3 10.3 0 0 0-6.9 2.617l-.017.033a10.2 10.2 0 0 1-5.767 2.55c9.296 2.326 17.61 6.98 24.05 13.732a45.2 45.2 0 0 1 9.116 14.05q.52-.9 1.234-1.7l.033-.017c3.493-3.913 3.518-9.898-.067-13.732a339 339 0 0 0-14.85-14.85c-1.917-1.792-4.369-2.677-6.834-2.683zm23.932 47.6q.261 3.3.1 6.699c-.275 5.804-1.385 11.555-3.2 17.083 13.706 1.583 24.45 13.318 24.45 27.417v47.132a281.6 281.6 0 0 1 12.633 148.779c14.804 4.534 28.909 9.482 42.182 14.866a10.13 10.13 0 0 0-4.467-2.95l-.083-.017c-4.756-1.57-7.719-6.345-6.9-11.283a315 315 0 0 0 2.934-22.634c.466-4.994 4.565-8.848 9.583-9.133h.067a10.25 10.25 0 0 0 9.65-9.866c.113-3.447.183-6.918.183-10.4s-.07-6.935-.184-10.383c-.193-5.29-4.37-9.57-9.65-9.866h-.066c-5.018-.285-9.117-4.144-9.583-9.15a315 315 0 0 0-2.934-22.616c-.819-4.938 2.144-9.713 6.9-11.283l.083-.017c5.075-1.673 7.979-6.95 6.75-12.15a321 321 0 0 0-5.383-19.867c-1.547-5.085-6.689-8.18-11.9-7.1l-.033.018c-4.903 1.024-9.864-1.651-11.616-6.35a309 309 0 0 0-8.717-21.1c-2.093-4.55-.465-9.93 3.734-12.682 4.391-2.867 5.952-8.636 3.483-13.266a338 338 0 0 0-10.517-18.183c-2.764-4.46-8.528-5.972-13.216-3.616-4.471 2.252-9.953.99-12.867-3.084a320 320 0 0 0-11.416-15zM84.139 531.618c2.412 1.513 5.006 2.264 7.76 2.241 3.037-.01 5.597-.67 7.656-1.968 2.048-1.297 3.675-3.083 4.858-5.347 1.172-2.276 2.299-5.78 3.39-10.513 1.082-4.733 2.128-7.725 3.152-8.954.808-.967 1.775-1.456 2.913-1.468 1.252-.011 2.241.5 2.992 1.525 1.172 1.593 1.775 3.8 1.787 6.621.022 2.731-.501 4.79-1.582 6.167-1.07 1.377-2.844 2.276-5.313 2.708l.49 9.716c4.425-.182 7.952-1.809 10.569-4.88 2.628-3.073 3.925-7.635 3.88-13.665-.023-3.698-.604-6.85-1.73-9.466-1.138-2.606-2.776-4.597-4.926-5.973-2.14-1.377-4.438-2.048-6.895-2.037-3.8.023-7.02 1.525-9.648 4.494-1.866 2.116-3.425 5.791-4.688 11.002-.967 4.062-1.66 6.656-2.048 7.794-.569 1.661-1.263 2.833-2.048 3.516-.796.67-1.775 1.012-2.912 1.012-1.764.011-3.323-.762-4.654-2.344-1.342-1.581-2.013-3.936-2.036-7.065-.023-2.947.705-5.302 2.184-7.054 1.468-1.752 3.8-2.924 6.975-3.504l-.99-9.455c-5.382.671-9.466 2.65-12.254 5.928s-4.164 7.964-4.118 14.05c.022 4.176.637 7.658 1.82 10.457 1.195 2.787 2.992 4.949 5.416 6.462m3.242 47.787q2.715 1.81 6.349 2.15c2.435.24 6.52 0 12.254-.705l25.087-3.06-1.172-9.649-26.43 3.231c-3.777.467-6.496.649-8.169.57-1.661-.092-3.14-.752-4.426-2.015-1.285-1.251-2.093-3.242-2.435-5.984-.33-2.685.012-4.881 1.002-6.588.99-1.695 2.434-2.867 4.346-3.527 1.183-.375 3.834-.83 7.941-1.331l25.873-3.163-1.183-9.637-25.486 3.106c-5.336.66-9.341 1.468-12.003 2.435-1.787.66-3.448 1.775-4.96 3.345-1.525 1.57-2.652 3.607-3.426 6.087-.762 2.492-.876 6.007-.307 10.581.455 3.778 1.32 6.781 2.572 9.011 1.251 2.219 2.776 3.937 4.573 5.143m8.022 22.869 37.648 18.204 7.35-1.73-8.078-34.28-7.92 1.866 5.144 21.822-36.192-17.441-8.533 2.013 8.965 38.047 7.896-1.855zm56.064 48.469-17.84 6.35-6.394-17.932 17.85-6.348-3.253-9.16-45.35 16.145 3.253 9.148 19.831-7.054 6.394 17.942-19.83 7.054 3.265 9.159 45.328-16.145zm-12.459 60.331c-3.607-.967-6.28-3.174-8.033-6.633-1.74-3.459-1.922-6.94-.546-10.456s4.494-6.496 9.364-8.954c4.95-2.492 9.193-3.265 12.754-2.31 3.55.956 6.235 3.22 8.044 6.793 1.798 3.572 2.025 7.054.694 10.433s-4.46 6.314-9.386 8.806c-4.984 2.503-9.284 3.277-12.891 2.321m30.72-7.213c2.013-5.791 1.421-11.844-1.764-18.17-1.764-3.504-3.891-6.303-6.372-8.408-1.854-1.593-4.084-2.799-6.667-3.607-2.594-.807-5.234-1.16-7.919-1.024q-5.444.273-12.014 3.584c-6.838 3.448-11.253 8.044-13.244 13.778-2.002 5.746-1.388 11.81 1.832 18.193 3.186 6.315 7.68 10.365 13.505 12.163 5.814 1.797 12.197.944 19.137-2.549 6.997-3.527 11.491-8.18 13.505-13.96m26.881 31.277-22.084 14.87c-3.163 2.128-5.506 3.528-7.02 4.21-1.524.683-3.14.762-4.858.228s-3.345-1.946-4.88-4.233c-1.525-2.252-2.22-4.357-2.106-6.326.114-1.957.876-3.663 2.276-5.108.876-.888 3.038-2.48 6.462-4.801l21.629-14.552-5.427-8.055-21.299 14.335c-4.46 3.004-7.668 5.541-9.591 7.612-1.308 1.4-2.264 3.14-2.913 5.233-.625 2.094-.728 4.426-.284 6.986s1.957 5.746 4.517 9.557c2.127 3.163 4.266 5.45 6.383 6.872 2.139 1.411 4.277 2.242 6.428 2.503 2.139.25 4.346-.068 6.622-.967s5.813-2.958 10.603-6.19l20.97-14.107zm47.957 56.064-6.69-7.043-19.307 18.33c-2.765 2.616-4.836 4.391-6.224 5.313s-2.97 1.263-4.756 1.024c-1.774-.24-3.618-1.354-5.518-3.356-1.866-1.969-2.912-3.926-3.117-5.883-.216-1.957.25-3.766 1.388-5.427.728-1.012 2.583-2.946 5.586-5.802l18.91-17.943-6.69-7.042-18.625 17.669c-3.903 3.71-6.633 6.736-8.192 9.102-1.058 1.593-1.718 3.482-2.002 5.643-.273 2.173.011 4.483.876 6.94.864 2.447 2.878 5.337 6.052 8.682 2.617 2.753 5.098 4.653 7.419 5.7 2.343 1.046 4.596 1.513 6.746 1.41 2.174-.113 4.29-.796 6.383-2.059 2.094-1.251 5.234-3.88 9.432-7.85zm28.331 24.149-20.548 24.712 5.405-37.306-7.27-6.042-30.765 37.011 6.94 5.769 20.058-24.132-5.142 36.533 7.498 6.235 30.764-37.011zm13.994 10.411-27.624 39.412 7.953 5.575 27.625-39.412zm39.766 25.258-28.25 24.69 7.611-36.863-9.079-5.348-9.625 50.187 8.931 5.267 39.286-32.699zm17.067 17.75 23.699 10.615 3.334-7.418-32.574-14.597-19.672 43.917 33.393 14.961 3.322-7.395-24.54-10.99 5.358-11.958 22.05 9.887 3.322-7.407-22.061-9.876zm57.344 27.99c-.433 1.376-1.104 2.423-2.026 3.151-.91.717-1.98 1.092-3.208 1.115q-1.844.051-8.499-2.048l-6.86-2.162 3.663-11.65 7.236 2.275c3.755 1.184 5.996 1.946 6.713 2.287 1.422.717 2.4 1.684 2.924 2.901.523 1.206.546 2.583.057 4.13m6.064-11.536q-2.952-2.29-10.308-4.597l-19.513-6.144-14.449 45.909 9.261 2.912 6.042-19.16 1.888.592q3.178 1.007 4.495 1.98c.876.66 1.604 1.581 2.184 2.787s1.502 3.971 2.765 8.283l3.55 12.106 11.081 3.493-2.787-10.73c-1.081-4.266-2.06-7.304-2.924-9.101-.865-1.82-2.117-3.618-3.755-5.427 4.21.694 7.691.227 10.422-1.377 2.73-1.616 4.642-4.13 5.723-7.578.864-2.707.944-5.336.273-7.861-.671-2.538-1.991-4.563-3.948-6.087m31.312 5.051c-3.63-.694-6.838-.74-9.614-.136s-5.052 1.82-6.815 3.663c-1.764 1.832-2.879 3.948-3.345 6.36-.717 3.732.136 7.18 2.537 10.342 1.706 2.242 4.994 4.483 9.864 6.736 3.789 1.752 6.212 2.924 7.248 3.527 1.535.887 2.537 1.797 3.049 2.708q.75 1.365.443 3.037c-.34 1.741-1.41 3.118-3.22 4.12s-4.243 1.205-7.315.613c-2.913-.557-5.075-1.729-6.508-3.515q-2.133-2.677-2.082-7.52l-9.455-.877c-.398 5.416.751 9.808 3.425 13.175 2.673 3.38 6.997 5.644 12.97 6.781 4.119.785 7.646.865 10.615.25 2.97-.625 5.439-1.968 7.396-4.05s3.197-4.471 3.709-7.179c.58-2.992.432-5.62-.433-7.896-.876-2.264-2.31-4.198-4.312-5.802-1.99-1.593-5.222-3.39-9.648-5.37s-7.156-3.596-8.169-4.836c-.785-.978-1.08-2.025-.865-3.152.24-1.217.933-2.093 2.083-2.64 1.786-.83 4.061-.989 6.837-.454 2.686.512 4.597 1.433 5.735 2.753s1.684 3.231 1.638 5.734l9.614 1.411c.683-4.369-.228-8.146-2.73-11.32s-6.713-5.325-12.652-6.463m20.394 52.736 9.66 1.07 5.324-47.82-9.659-1.08zm90.624-46.592-9.784 19.751-12.595-18.226-10.73.728v-.148l-38.228-1.434-.295 8.135 14.267.535-1.502 39.958 9.705.364 1.513-39.958 14.234.535.273-7.134 18.886 25.793 1.366 20.206 9.67-.648-1.376-20.15 15.758-29.07zm68.779 24.747c-1.786 3.277-4.562 5.37-8.328 6.246-3.766.887-7.202.25-10.297-1.911-3.095-2.173-5.268-5.905-6.508-11.207-1.251-5.393-1.012-9.705.751-12.936 1.752-3.232 4.585-5.302 8.476-6.224 3.903-.91 7.339-.318 10.32 1.764 2.97 2.093 5.097 5.825 6.348 11.195 1.263 5.427 1.013 9.785-.762 13.073m.182-31.561c-5.143-3.311-11.161-4.153-18.067-2.538-3.823.9-7.043 2.31-9.671 4.222-1.98 1.433-3.675 3.31-5.063 5.643a22.3 22.3 0 0 0-2.856 7.452c-.671 3.561-.444 7.748.671 12.515 1.752 7.452 5.177 12.834 10.286 16.122s11.15 4.107 18.112 2.47c6.884-1.605 11.879-5.03 14.996-10.275 3.106-5.233 3.777-11.639 2.002-19.194q-2.679-11.451-10.41-16.417m44.533-.781-18.91 6.793-3.857-10.718 21.913-7.873-2.764-7.657-31.05 11.15 16.293 45.294 9.136-3.288-6.917-19.251 18.909-6.792zm52.735-38.656L711.835 843l-33.678 18.113 3.857 7.167 12.584-6.758 18.932 35.214 8.556-4.608-18.944-35.214zm30.38 18.091-7.396-10.808 19.933-13.653-4.585-6.69-19.933 13.653-6.03-8.807 21.424-14.665-4.597-6.724-29.445 20.16 27.192 39.72 30.196-20.685-4.574-6.69zm47.615-49.238c1.707 3.198 2.39 6.02 2.06 8.477-.319 2.458-1.457 4.54-3.402 6.235-2.64 2.298-5.643 3.186-8.988 2.674-3.345-.501-7.009-3.05-11.014-7.646-3.766-4.324-5.643-8.18-5.654-11.571 0-3.39 1.33-6.258 4.027-8.601 1.957-1.696 4.085-2.594 6.394-2.685s4.494.614 6.565 2.116l5.746-8.044c-3.357-2.185-6.53-3.334-9.546-3.459-5.04-.205-9.796 1.616-14.233 5.484-5.086 4.426-7.737 9.67-7.942 15.735-.216 6.053 2.31 12.106 7.566 18.147 4.972 5.712 10.445 8.863 16.43 9.455 5.961.592 11.354-1.206 16.178-5.404 3.891-3.402 6.27-7.157 7.134-11.287.853-4.13.102-8.647-2.253-13.562zm10.752-54.783 14.04 12.708-12.788 14.12-14.029-12.72-6.53 7.202 35.68 32.312 6.519-7.202-15.599-14.13 12.777-14.109 15.599 14.12 6.53-7.191-35.68-32.312zm28.416-37.206 26.203 18.603-37.603-2.538-5.472 7.703 39.24 27.864 5.223-7.362-25.588-18.17 36.829 2.344 5.632-7.941-39.23-27.864zm55.467-13.653c-1.832 3.413-4.585 5.564-8.249 6.451s-7.907.046-12.708-2.526c-4.87-2.616-7.953-5.666-9.205-9.124-1.263-3.46-.955-6.952.945-10.48 1.888-3.526 4.607-5.71 8.146-6.564 3.527-.853 7.725.034 12.595 2.64 4.903 2.64 8.01 5.711 9.295 9.215 1.286 3.516 1.013 6.975-.819 10.388m-3.527-28.341c-6.906-3.71-13.312-4.722-19.194-3.06-5.882 1.672-10.513 5.631-13.869 11.877-1.843 3.46-2.924 6.804-3.22 10.047-.239 2.434.057 4.938.876 7.532s2.048 4.937 3.698 7.065c2.241 2.867 5.518 5.461 9.841 7.782 6.747 3.618 13.039 4.597 18.887 2.936 5.837-1.65 10.456-5.632 13.846-11.935 3.334-6.235 4.074-12.254 2.196-18.045-1.866-5.803-6.223-10.536-13.061-14.2m21.447-11.082-36.852-14.563-3.572 9.034 44.383 17.544 12.459-31.505-7.532-2.98zm18.09-51.883c-.99 3.744-3.174 6.463-6.541 8.18-3.368 1.708-7.692 1.855-12.948.456q-8.021-2.133-11.059-6.758c-2.025-3.072-2.514-6.542-1.49-10.422 1.035-3.857 3.174-6.61 6.417-8.249 3.242-1.65 7.531-1.752 12.856-.33 5.393 1.434 9.125 3.71 11.173 6.827 2.06 3.117 2.594 6.553 1.593 10.296m-9.956-26.77c-7.566-2.026-14.028-1.537-19.376 1.444s-8.93 7.896-10.751 14.745c-1.013 3.79-1.297 7.293-.83 10.513.318 2.424 1.182 4.802 2.582 7.134a22.7 22.7 0 0 0 5.222 6.03c2.833 2.264 6.622 4.039 11.355 5.29 7.407 1.98 13.767 1.49 19.069-1.467s8.885-7.896 10.717-14.814c1.82-6.826 1.16-12.845-1.99-18.056s-8.488-8.829-15.998-10.82m24.377-49.005-19.012-2.503-2.73 20.764 8.043 1.058 1.445-11.036 6.053.797c.945 1.604 1.673 3.47 2.196 5.609.523 2.127.66 4.21.387 6.223-.535 4.073-2.39 7.19-5.54 9.33-3.164 2.15-7.59 2.856-13.244 2.105-5.257-.694-9.057-2.458-11.39-5.29-2.343-2.834-3.242-6.36-2.684-10.57.364-2.777 1.354-4.995 2.947-6.68 1.604-1.672 3.618-2.696 6.052-3.06l-.534-9.807c-4.517.375-8.226 2.07-11.139 5.074-2.935 3.004-4.779 7.464-5.564 13.392-.591 4.562-.307 8.464.877 11.741q2.303 6.417 7.68 10.308c3.595 2.594 7.873 4.221 12.845 4.87q6.86.904 13.072-1.127c6.212-2.03 7.498-3.743 10.08-7.179s4.21-7.646 4.859-12.64c.523-3.925.284-7.908-.694-11.935-.99-4.016-2.321-7.168-4.005-9.444m-12.715-34.133-27.727-18.01-.125 11.195 18.91 11.31-19.171 11.104-.137 11.4 28.068-17.317 20.264.228.113-9.67zM529.323 110.583c-.933.274-1.343-.42-2.344.171-1.024.615-2.105 1.127-3.152 1.695-1.297.694-3.436 1.866-4.812 2.606-.114-.33.569-1.024.625-1.15.729-1.842 1.4-3.72 2.276-5.495.74-1.501 1.775-2.844 2.583-4.312.921-1.706 1.524-3.64 2.64-5.2 2.286-3.208 3.879-6.632 4.596-10.523.33-1.798.705-3.436-.91-4.802a45 45 0 0 1-1.9-1.706c-1.73-1.639-4.984-2.026-7.043-.945-1.172.615-2.412 1.32-3.687 1.468-2.15.262-4.255.49-6.405.899-3.55.671-7.259.557-10.9.853-1.012.08-2.036.364-3.015.671-.284.091-.671.717-.591.945.295.773.66 1.581 1.194 2.196 1.434 1.65 2.344 3.208 4.893 4.346 1.376.614 2.218.637 3.367.284.319-.09 1.935-1.308 2.253-1.422 2.367-.796 3.38-.66 5.757-1.422 2.14-.694 4.278-1.445 6.463-1.991 1.228-.307 2.24 1.229 1.752 2.423-.763 1.889-1.445 3.812-2.276 5.678-.398.898-.273 1.672-1.012 1.957-1.389.523-1.263 1.945-1.878 2.89-1.524 2.366-3.823 5.085-5.279 7.497-.956 1.57-1.001 2.97-2.036 4.483-1.48 2.173-3.732 4.653-5.496 6.576-1.559 1.707-2.31 2.003-4.312 3.152-2.571 1.467-6.45 3.914-9.25 4.846-2.696.9-5.552 1.263-8.328 1.923-.671.16-1.707-.205-2.207 1.047.819 1.4 1.433 1.126 1.968 1.581 1.07.888 2.06 1.89 3.197 2.686 2.116 1.513 4.722 1.729 7.157 2.275 1.16.262 2.582.068 3.72-.353 1.388-.534 2.583-1.547 3.891-2.31 1.331-.784 2.617-1.831 4.062-2.161 1.66-.387 2.696-1.547 4.062-2.275 1.07-.57 1.968-1.434 2.992-2.094 2.241-1.445 4.54-2.799 6.758-4.278.956-.637 1.695-1.593 2.662-2.207 4.324-2.697 6.44-3.743 9.956-5.37 1.012-.478.887-2.39.182-2.913-.683-.535-.717-2.65-2.173-2.219M281.77 146.082c-.75-1.217-1.956-1.65-3.162-1.274-1.297.42-2.56 1.16-3.675 1.98-2.003 1.456-2.492 3.857-1.912 5.904 3.197 11.344-.853 14.962-2.935 22.22-.626 2.174-.83 4.21.216 6.383 1.229 2.549 3.459 3.675 5.95 2.299 1.457-.785 2.595-2.15 3.846-3.277.182-.17.307-.535.285-.796-.171-3.072-.273-6.156-1.741-9-1.695-3.265-2.025-6.633-.24-9.978.308-.58 1.014-1.331 1.526-1.32.614.023 1.41.637 1.763 1.218.967 1.57 1.775 3.253 2.605 4.903 1.787 3.584 3.732 7.1 5.302 10.763a649 649 0 0 1 9.216 22.619c.58 1.524.41 3.447.182 5.12-.216 1.558.467 3.811 1.832 4.38 1.092.455 4.232-.75 4.38-1.957.273-2.196.637-4.562.103-6.644-.91-3.516-2.424-6.872-2.879-10.547-.193-1.536-.444-3.152-1.07-4.54-2.298-5.063-4.857-10.012-7.144-15.075-3.345-7.384-6.713-14.757-10.968-21.22-.649-.943-1.092-1.535-1.48-2.16m27.563-.257c-.614.683-1.251 1.354-2.036 2.196-1.047-1.968-1.878-3.732-2.901-5.393-1.195-1.957-3.892-2.253-5.03-.432-.978 1.57-1.888 3.424-2.059 5.222-.569 5.939-.807 11.912-1.149 17.885-.216 3.846 1.934 6.087 5.791 6.053 3.197-.023 4.813-2.446 3.55-5.347-.25-.58-.546-1.138-.842-1.695-1.308-2.447-1.923-5.052-1.99-7.862.682-.125 1.228-.216 1.694-.296 1.138 2.173 2.287 4.107 3.186 6.166a180 180 0 0 1 3.812 9.626c1.171 3.197 2.138 6.462 3.322 9.66.17.466.978.92 1.547.978 1.82.216 3.345-.592 4.62-1.832 1.103-1.058 1.296-2.662.614-4.016-1.57-3.14-3.14-6.28-4.688-9.432-1.615-3.277-3.208-6.565-4.824-9.864.524-.365.99-.683 1.786-1.23 1.707 2.481 3.368 4.904 5.03 7.317 1.069 1.547 3.47 2.491 5.256 1.968.455-.125 1.115-.592 1.137-.945.126-1.41.512-3.094-.068-4.22-1.797-3.425-3.948-6.656-6.064-9.888-.728-1.126-1.24-2.161-.979-3.527.092-.455-.01-1.149-.318-1.445-2.219-2.139-6.36-1.922-8.397.353m6.571-27.477c-1.74-1.001-2.901-1.183-4.335.25-.694.706-1.331 1.65-1.559 2.583-.807 3.379-1.479 6.792-2.116 10.205-.432 2.31 1.275 3.8 3.402 3.027a3.1 3.1 0 0 0 1.365-1.047c1.036-1.513 1.991-3.095 3.072-4.813.91 1.332 2.026 2.583 2.72 4.028 2.002 4.221 3.538 8.704 5.825 12.754 3.345 5.973 7.054 11.753 10.854 17.453 3.777 5.666 7.84 11.139 11.821 16.668.558.751 1.377 1.377 2.196 1.878 1.104.694 2.241.591 3.197-.41.853-.865 1.48-3.117 1.013-3.937-2.902-5.154-5.723-10.353-8.795-15.405-2.105-3.47-4.608-6.678-6.838-10.069-1.422-2.162-2.64-4.46-3.993-6.667-2.412-3.914-4.688-7.873-6.554-12.094-2.526-5.7-5.563-11.105-11.275-14.404m424.875 18.773a86 86 0 0 1 6.405-.296c1.047 0 1.934 1.787 1.468 3.004-1.047 2.674-2.298 5.086-5.029 6.679-1.923 1.115-3.618 2.252-5.928 1.99-.239-.034-.5.205-.842.353 1.332-1.058 2.583-1.945 3.698-2.97 1.172-1.08.91-2.468.432-3.788a39 39 0 0 0-1.228-3.117c-.467-1.093-.114-1.764 1.024-1.855m24.962 31.209c-.08-.82-.558-1.639-1.013-2.367-1.843-2.924-4.391-4.983-7.884-5.438-2.56-.342-5.188-.24-7.771-.467-.637-.057-1.513-.49-1.775-1.012-.319-.638 1.047-1.593 2.037-1.593 1.365-.012 2.764.102 4.073-.182 2.048-.444 3.993-1.172 5.37-2.993.58-.75 1.581-1.263 2.48-1.672 1.661-.751 3.402-1.354 5.086-2.037 2.287-.933 4.574-1.854 6.815-2.867 1.024-.455 2.025-1.024 2.89-1.718 1.433-1.16 1.263-4.164-.319-5.666-1.365-1.297-2.821-2.514-4.266-3.732-.24-.204-.626-.375-.922-.34-1.923.26-3.834.568-5.745.887-.717.125-1.445.238-2.14.455-1.501.466-1.524 3.003-.045 3.197 1.877.25 3.8.17 5.689.352.49.046 1.297.512 1.32.842.045.5-.364 1.15-.774 1.548-.307.295-.899.295-1.365.443-.524.182-1.07.33-1.582.57-2.139 1-4.255 2.036-6.394 3.026-2.139 1-4.312 1.922-6.44 2.958-2.89 1.41-5.723 2.947-8.624 4.323-4.096 1.946-7.236 2.048-11.73 1.195-1.4-.262-1.752-.979-1.07-2.219.32-.58-.739-.796-.648-1.467s0-1.377.102-2.048c.046-.319.353-.83.58-.854 1.161-.09 2.333-.057 3.698-.08-.603.615-1.08 1.104-1.684 1.719.638 1.536 2.15.75 3.163.876 1.48.182 2.97.148 4.46.193 2.344.091 4.7.216 7.043.24.41 0 .91-.365 1.206-.706 2.219-2.549 3.106-5.382 1.98-8.738-.512-1.502-.763-3.095-.99-4.676-.125-.9.227-1.457 1.4-1.16 3.48.864 6.348-1.594 6.394-5.178.045-2.992-.103-5.757-1.741-8.18-.25-.387-1.604-.83-1.764-.751-.443.25-.876.74-1.035 1.229-.239.717-.262 1.502-.341 2.275-.33 3.084-3.106 4.05-5.177 5.006-3.152 1.445-6.713 2.037-10.115 2.902-.603.148-1.354.011-1.945-.217-1.514-.546-2.651.183-2.617 1.764.011.432.034.865.102 1.297.433 2.697-.66 4.517-3.208 5.484-1.263.49-2.264.5-2.856-.944-.125-.296-.444-.512-.694-.74-1.047-.967-.956-1.661-.057-2.708.956-1.137 1.946-2.355 2.458-3.72.569-1.536.569-3.277.91-4.915.626-3.095-.626-5.94-.785-9.034-.125-2.48-2.4-1.854-2.606-1.559-1.194 1.752-.864 3.345-1.285 5.211-.706 3.118-1.331 6.292-3.459 8.875-.353.432-.432 1.08-.671 1.615-.808 1.82-1.48 3.698-3.13 5.04-.42.33-.625 1.298-.488 1.866.398 1.593 2.275 2.071 4.334 1.184.865-.376 1.673-.774 2.208.386.41.854-.08 2.515-.865 2.868a336 336 0 0 1-5.848 2.548c-1.024.421-2.253 2.412-1.661 2.845.921.682 2.06 1.297 3.174 1.433 1.582.194 3.118-.41 4.426-1.4.705-.545 1.513-.58 1.877.137.421.797.137 1.297.091 2.196-.011.239-1.217.694-1.797.592-3.13-.546-5.791-.797-8.92-1.32-1.889-.307-3.823-.285-6.099.717-1.126 1.297-.17 2.275.82 2.628 2.514.876 7.122 1.536 10.035 1.4.819-.035 1.66.079 2.457.238 1.604.319 3.174.74 4.779 1.07 2.082.432 4.175.808 6.257 1.229 2.025.41 4.05.887 6.087 1.251 1.32.228 2.674.284 4.005.467 2.196.307 4.392.625 6.588.99.864.136 1.706.409 2.548.625v.421c-.466.148-.933.421-1.41.421-1.286-.023-2.572-.216-3.869-.262-2.014-.068-4.039.012-6.041-.125-1.741-.114-3.448-.489-5.189-.682-3.06-.342-6.12-.717-9.193-.922-1.956-.137-3.777-.319-5.825.182-.717.17-1.285.228-2.082.353-.899.148-1.377.296-2.287.398-.045.17-1.092.535-.864 1.195.295.99 1.171 1.194 1.82 1.695.5.387 1.195.523 1.65.933.455.42.887 1.012.99 1.581.034.25-.751.751-1.23.956-2.48 1.047-4.994 2.037-7.747 3.163-.296.398-.376 1.24-.376 1.98-3.06-1.332-5.939-2.879-9.181-4.108-1.992-.75-4.642-1.024-6.61-1.831-1.412-.58-2.788-1.275-4.233-1.775-.444-.148-1.263.011-1.525.341-.239.307-.09 1.08.114 1.547.603 1.309 1.217 2.651 2.048 3.823.74 1.058 1.08 2.526 2.81 2.765 2.15.296 4.312.717 6.383 1.354 1.809.546 3.584 1.229 5.302 1.888 1.342.524 2.184 2.105 1.798 3.493-.547 1.969-1.48 3.607-2.651 5.177-.785 1.035-1.32 2.23-1.787 3.447-.933 2.447-4.733 4.529-6.974 3.653-1.764-.683-3.459-1.536-5.165-2.333a41 41 0 0 1-2.81-1.456 353 353 0 0 1-6.634-3.982c-1.49-.922-.398-3.39-3.14-2.571-1.388.42-1.695 1.342-2.025 1.342.682 2.48 2.4 4.995 4.084 6.622 2.355 2.253 4.904 4.198 7.26 6.45 2.024 1.958 3.651 1.73 5.733 3.63 1.184 1.081 2.253 2.333 3.584 3.197 2.242 1.445 5.097.546 6.713-1.467 1.616-2.026 2.549-4.358 3.356-6.781 1.434-4.29 4.733-8.852 5.234-13.38v-.034c.193-1.775 1.752-2.697 3.436-2.094 1.104.398 2.173.922 3.22 1.707-1.172.74-2.81.261-3.368 2.139 1.786 1.422 2.583 1.172 3.755 1.194 2.423.034 4.505.922 6.667 1.82 1.547.66 3.038 1.741 4.938 1.31 1.149-.251 2.696-1.776 2.264-2.538-1.263-2.185-2.571-4.346-4.005-6.406-.398-.58-1.263-.921-1.98-1.16-1.183-.398-2.423-.603-3.63-.933-2.673-.74-5.37-1.41-8.02-2.219.273-.09.535-.227.773-.455 1.525-1.467 5.826.637 7.999-.307 1.024-.444 2.105-.74 3.129-1.195 1.285-.557 2.73-2.742 2.32-3.731-.807-1.946-.91-4.358-3.39-5.28 1.798.114 3.527.148 5.177.512 1.536.33 2.992 1.047 4.505 1.548.91.307 2.014.307 2.754.842 1.809 1.297 3.777 1.934 5.962 2.184 2.15.25 4.278.83 6.44.91 3.435.137 6.883.023 10.319-.056 2.605-.057 4.312-1.525 4.107-3.584"/><path d="M706.133 142.84c-1.285 1.149-2.31 2.753-3.015 4.346-.5 1.126-.352 2.582-.296 3.88.023.534.478 1.376.91 1.49.831.227 1.855.273 2.652 0 1.251-.455 2.434-1.15 3.56-1.889 1.116-.74 2.197-1.559 3.175-2.298a5.9 5.9 0 0 0 1.65-1.911c.444-.808.842-1.48.899-2.185.216-2.742.25-5.507.17-8.249-.057-2.002.842-3.56-.375-5.381-.649-.99-1.912-1.65-2.526-.66-.318.523-.478 1.16-.58 1.775-.694 4.471-2.845 8.066-6.224 11.081m-10.923 10.752c1.195-2.32.114-5.483.296-8.02.046-.604.296-.98-1.046-1.89-1.184.262-1.195.729-1.627 1.24-1.001 1.173-1.843 2.492-2.867 3.653-1.275 1.456-2.8 2.708-3.96 4.232-1.843 2.435-1.263 5.405 1.73 7.714 1.615.558 1.9-.068 3.094-.159 1.707-.136 3.106-1.593 3.288-3.3.126-1.296.49-2.309 1.093-3.47m172.373 215.467c.307-.148 3.413-3.39 5.074-4.46.603-.387 9.91-11.355 12.891-20.934-.432.273-.967-1.593-1.206-1.195-1.15 1.889-3.243 2.594-4.778 3.97-.956.854-1.935 1.662-2.856 2.538a1209 1209 0 0 1-7.51 6.963c-.819.637-2.366 1.217-2.878 1.513-1.195.705-2.332 1.525-3.595 2.082-.694.319-5.825-.296-6.85-1.41-1.74-1.89-8.794-10.49-9.522-11.674a14.6 14.6 0 0 1-1.468-3.208c-.17-.547-.148-1.445.193-1.81.706-.784 1.616-1.433 2.549-1.945 2.105-1.15 4.346-1.229 6.69-.808 1.103.194 7.793-.455 8.874-1.4 1.32-1.16 2.879-2.548 3.14-4.573.091-.75-.056-1.536-.09-2.332-2.185-.467-3.47 1.354-4.87 1.126-3.174-.49-6.144.284-9.08.99-3.003.74-5.87 2.036-8.771 3.14-1.104.421-2.128 1.013-3.22 1.456-.433.171-.99.649-1.559 1.184-1.684 1.615-2.492 4.027-1.854 6.28.08.273.182.523.307.705.671 1.002 1.4 3.402 2.025 4.438 1.206 2.002 2.264 3.88 3.436 5.905.068.125 3.595 5.279 4.642 6.712.876 1.206 4.323 6.19 8.34 9.125.216.17 2.446 1.81 2.73 1.866 4.824 1.047 7.077-3.254 9.216-4.244m5.888-85.163c-1.024-.34-1.65.956-1.934 2.094-.512 2.082-.512 4.63-2.549 5.416-.785.295-1.467.887-2.139 1.41-.91.717-3.083.785-3.743.035-.637-.74-1.229-1.536-1.866-2.287-.682-.808-1.331.694-1.547 1.365-.182.58-.285 1.365-.034 1.855.614 1.183 1.467 2.24 2.184 3.367.307.5.478 1.081.751 1.593.728 1.388 2.355 1.946 3.743 1.309 1.07-.49 3.584-2.333 4.358-2.697 1.547.853 1.32 3.334 2.685 3.527 1.889.273 11.673 4.153 13.54 4.779 1.956.648 18.988 9.58 20.08 10.524 1.184 1.012-2.912 3.459-6.928.842-1.115.569-1.138.921-.091 1.672.261.194.466.467.694.706.728.773 1.33 1.729 2.207 2.275 1.524.944 4.255 5.632 5.95 6.155 1.445.444 8.238 5.553 12.379.74.75-.865-.091-1.968.136-3.004.353-1.615-.67-3.003-1.206-4.483-.603-1.683-6.086-5.154-7.247-5.984-1.172-.83-2.378-1.616-3.561-2.412-.262-.296-.694-.376-1.058-.592-.888-.512-1.718-1.115-2.606-1.627-1.73-1-3.515-1.923-5.222-2.98-1.49-.91-2.787-2.276-4.38-2.88-2.617-1-4.938-2.445-7.305-3.867-.25-.16-.603-.478-.58-.66.057-.33.33-.842.58-.888 1.252-.227 2.526-.341 3.8-.455 1.82-.17 3.596.33 5.473.194 1.627-.126 2.651-1.002 3.994-1.423l-.023-.512c-2.537-2.503-10.16-1.945-11.184-1.775-2.026.33-8.363-.534-8.898-.785-1.877-.853-4.596.33-6.394-.591.114-.433 1.024-2.993 1.206-3.254 1.673-2.458 4.267-3.573 6.906-4.551.615-.228 1.423.09 2.15.102 1.082.023 2.163.046 3.232-.034 1.024-.09 5.996.285 5.905-2.31-.353-.216-.66-.386-.956-.58-1.638-1.047-7.224-8.226-17.669-11.355-.842.023-1.684.035-2.537.046-.08.16-.16.307-.24.466.74.99 1.616 1.923 2.197 3.004 1.012 1.9 3.333 2.924 4.05 4.95.33.92-4.187 4.277-6.303 3.56m-4.267 42.582c2.06.284 4.108.626 6.156.899 1.774.227 3.583.227 4.846 1.843.342.432.99.967 1.434.921 1.433-.182 2.287.808 3.231 1.457 2.606 1.82 6.326 1.092 6.69-2.14-.99-.75-1.889-1.649-2.97-2.207-1.706-.898-4.596-4.061-4.79-4.266-.864-.944-1.706-1.923-2.639-2.788-.728-.67-1.581-1.217-2.4-1.786-.888-.626-1.992-3.55-2.902-4.141-1.126-.74-2.32-1.377-3.356-2.219-1.343-1.115-4.028.762-5.61 1.718.126.307.149.592.308.74 1.195 1.08 2.355 2.23 3.663 3.151 1.184.842 2.037 3.05 1.263 4.233-.341.512-.443-.08-1.046.17-.717.296-2.048-.432-2.776-.534-1.616-.217-3.152-.672-4.745-1.013-2.355-.512-4.756-.899-7.077-1.513-1.82-.49-3.538-1.309-5.336-1.877-2.685-.854-5.415-1.57-8.1-2.435-4.017-1.286-7.999-2.685-12.015-3.982-1.832-.592-3.72-.979-5.552-1.56-1.457-.454-2.868-1.069-4.301-1.626-.944-.353-2.332 2.07-2.094 2.64.66 1.524 1.195 3.447 2.424 4.334 1.945 1.411 4.357 2.287 6.678 3.06 4.222 1.4 8.534 2.55 12.8 3.8.99.285 1.968.615 2.97.797 1.99.387 3.993.672 5.984 1.024 1.718.296 3.425.615 5.143.945 1.581.295 3.151.637 4.733.921 1.775.33 3.561.649 5.359.922 1.33.205 2.685.33 4.027.512m-3.925-46.848c.011-.182.239-.364.592-.888-1.525-.136-2.89-.625-3.994-.295-3.163.944-6.246 2.195-9.33 3.39-1.456.569-7.497 2.173-8.43 2.48-2.708.865-5.37 1.889-8.033 2.913-3.64 1.388-7.258 2.833-10.9 4.232-.193.08-.5.114-.648.023-1.035-.683-5.029 1.15-6.03 1.752-.637.376-1.115 1.047-1.661 1.582.091.114.182.227.284.341-1.171.614-3.413 4.562-3.14 5.757.137.626.546 1.593.967 1.684 1.946.387 3.903 1.286 5.95.273 10.388-5.188 21.345-9.17 31.403-15.064 2.264-1.33 4.721-2.435 7.463-3.003 2.56-.547 5.393-1.627 5.507-5.177m54.443 26.368c1.046 1.843 1.092 3.675.443 5.666-.17.5.171 1.502.592 1.797.785.547 1.809.729 2.72 1.059 1.148.41 4.254-.922 4.573-2.094.66-2.366 1.195-4.767 1.752-7.156.057-.25-.375-.637-.17-.83 1.342-1.275-1.184-2.584-1.855-4.04-.956.205-1.866.25-2.606.603-1.388.671-2.855 1.354-3.936 2.39-.66.625-2.4 1.046-1.513 2.605"/><path d="M895.488 322.722c.944-1.092.808-2.162.08-3.277-.842-1.308-3.869-4.46-4.415-5.085-.591-.683-1.115-1.593-1.877-1.923-1.15-.5-2.492-.82-3.72-.728-.467.034-.865 1.4-1.23 2.196-.272.58-.477 1.206-.67 1.82-.33 1.001 1.16 3.265 2.138 3.481.763.171 1.48.547 2.196.877.5.216.967.512 1.457.762.705.375 1.774.546 2.059 1.115.774 1.536.853 1.502 2.082 1.809.239-.5 1.604-.694 1.9-1.047M177.835 295.33c-.308.512 1.627 2.014-.114 2.867-.671-.398-4.05-2.332-4.574-2.799-.239-.216-.16-.785-.216-1.183.364-.034.774-.182 1.07-.057.614.262 2.639-.182 3.834 1.172m6.644 19.854c1.718 1.502 3.459 3.004 5.143 4.55 1.263 1.173 2.105 2.333 1.388 4.358-.364 1.047.478 2.492.682 3.778.091.591.091 1.274-.113 1.82-.308.82-.83 1.559-1.252 2.333-.569 1.012-3.436 4.767-3.049 5.95 1.502 4.653 7.384 3.402 6.28 8.01-.785 3.31-5.552 9.75-6.405 13.13-1.866-1.582-2.742-3.641-2.333-6.304.524-3.459-.75-6.667-1.536-9.944-.17-.682-.182-1.547.103-2.173 1.251-2.73.375-5.142-.899-7.554-.717-1.377-2.014-2.526-1.581-4.392.09-.376-.49-1.092-.945-1.365-1.445-.91-1.581-2.287-1.137-3.607.5-1.502 1.433-2.856 2.104-4.312.546-1.172 1.07-2.378 1.445-3.607.433-1.445.967-1.672 2.105-.671m-13.016 26.009c-.694-3.493-.637-6.986.08-10.479.182-.899.455-1.798 1.559-1.82 1.08-.023 1.66.648 1.809 1.73.193 1.444.58 2.878.58 4.311 0 .899 1.07 3.004.785 3.903-.364 1.126 0 3.777-.41 4.88 0 0 .103.035-.273.763.933 2.924-1.172 1.616-1.33 1.581-.183-.637-2.675-4.22-2.8-4.87m3.596-52.302c-1.684.797-3.39 1.82-4.688 3.13-2.264 2.286-1.82 5.472.705 7.463.808.637 1.65 1.263 2.299 2.036.773.922 1.797 1.923 1.968 3.004.614 4.153 1.024 8.363.228 12.55-.33 1.774-1.081 3.265-3.152 3.572-.307.046-.66.216-.876.444-2.662 2.901-5.029 6.03-6.667 9.602-.922 2.026-1.616 4.176-2.162 6.338-.603 2.355-1.013 4.79-1.297 7.202-.296 2.469-.467 4.96-.455 7.44.011 1.855 1.251 2.47 2.947 1.673 1.524-.717 2.912-1.593 3.515-3.322.16-.444.478-.83.774-1.331.387.227.75.364 1.024.614 5.837 5.325 2.526 7.612 2.56 10.865.023 2.071 1.138 3.38 2.935 2.833 2.788-.853 4.95-5.46 8.306-1.308 1.308 1.604 2.39 3.937 4.073 2.594-.193 3.561-.421 7.134-.535 10.695-.114 3.618-.068 7.236-.045 10.854.011 1.866.842 3.152 2.127 3.482s2.503-.33 3.459-2.094c1.354-2.526 2.06-5.245 2.185-8.112.068-1.513-.012-3.038.193-4.54.5-3.766 1.217-7.509 1.684-11.286.83-6.701 1.433-13.426 2.32-20.104.376-2.788 1.366-5.484 1.81-8.272.353-2.286 1.4-4.141 2.776-5.882.842-1.07 1.934-1.33 3.254-.603.967.546 2.048.9 3.095 1.263 1.706.592 2.958-.227 3.345-1.968.603-2.651-1.115-6.121-3.505-7.316-3.97-1.968-7.122-4.95-10.32-7.896-.704-.66-1.58-1.331-1.9-2.184-.807-2.117-2.57-3.118-4.288-4.221-1.07-.694-2.185-1.309-3.266-1.991-.352-.228-.762-.524-.91-.888-.865-2.162-2.014-4.278-1.547-6.758.045-.25-.046-.58-.194-.785-1.16-1.616-2.127-3.482-3.595-4.733-2.298-1.946-5.006-3.561-8.18-2.06m-49.107 48.595c1.001-.535 2.025-1.183 2.753-2.037 1.286-1.524 2.424-3.197 3.516-4.87 2.526-3.856 4.938-7.782 6.326-12.219.796-2.548 1.49-5.12 2.287-7.85.41.387.864.728 1.217 1.16 1.559 1.934 2.503 4.153 2.298 6.633-.273 3.3.979 6.065 2.754 8.613 1.092 1.559 2.571 2.617 4.71 2.469 2.162-.148 4.107 1.172 4.744 3.186.592 1.866.968 3.788 1.468 5.677.125.5.296 1.024.558 1.468.5.842 1.16.796 1.524-.057.398-.967.751-1.991.854-3.027.33-3.253.295-6.553.864-9.75.444-2.446.034-4.574-.978-6.679-1.092-2.275-2.207-2.685-4.63-1.877-1.833.603-2.845-.125-3.198-2.025-.182-1.013-.842-5.518-1.502-6.258-1.115-1.274-2.264 1.127-3.515-.022-.421-.376-.82-.842-1.036-1.343-.83-1.98-1.66-3.97-2.344-5.996a23 23 0 0 1-1.035-4.369c-.16-1.195.17-2.446.046-3.652-.353-3.573.614-6.86 1.9-10.115.728-1.843 1.467-3.709 1.98-5.62.318-1.183-.103-2.344-1.23-3.06-1.513-.98-5.097-.65-6.143.807-1.457 2.037-3.095 4.005-3.55 6.656-.296 1.684-1.07 3.277-1.638 4.904-.126-.035-.262-.08-.387-.114-.012-.137-.057-.285-.023-.41.887-4.016-1.08-7.042.25-12.083.114-.41.023-.99.25-1.354 1.081-1.718 1.264-3.572 1.093-5.518-.376-4.175-.751-8.362-1.092-12.549-.137-1.809-1.002-2.947-2.72-3.504-2.377-.785-4.096.387-5.552 2.002-1.479 1.639-1.968 3.686-2.514 5.825-.728 2.856-3.687 5.37-3.209 8.295 2.446 15.086-5.836 16.372-7.497 24.916-.729 3.72-.968 7.544-1.263 11.332-.148 1.934.921 2.515 2.582 1.502.9-.546 1.536-1.502 2.424-2.082 2.946-1.957 4.289-4.676 4.232-8.18-.023-1.56 0-3.14.182-4.688.307-2.708-.045-5.746.888-8.237 1.058-2.833 1.24-5.348 1.627-8.306.227-1.706 1.422-3.55 1.695-5.347 1.672.557 2.093 1.786 2.241 2.97.626 5.279 1.297 10.569 1.627 15.882.387 6.349.478 12.709.592 19.069.023 1.49-.341 2.992-.637 4.46-.364 1.843-1.115 3.652-1.23 5.507-.204 3.3-.568 6.519-1.956 9.545-1.092 2.344-2.31 4.631-3.243 7.032-.33.83-.227 2.036.16 2.855.443.979 1.65.877 2.48.433m91.478-39.595c-1.502-.455-2.936-2.127-5.086-1.16-3.004 1.354-5.496 3.379-7.612 5.836-1.297 1.49-.58 3.766 1.286 4.028 2.264.307 4.164 1.149 6.041 2.423 1.968 1.331 5.302 1.081 6.77-.216 1.923-1.718 1.365-9.136-.797-10.547-.125-.08-.25-.16-.603-.364m-58.197-20.565c-1.365-.694-2.48-.046-2.492 1.467 0 .57.171 1.15.285 1.718.227 1.138.546 2.265.694 3.414.41 3.22.671 6.462 1.16 9.67.296 2.003.876 3.96 1.366 5.928a6.8 6.8 0 0 0 .625 1.639c.433.773 1.093.967 1.57.148.501-.865.922-1.82 1.127-2.788.387-1.9.682-3.823.853-5.746.17-1.877.24-3.777.16-5.654-.069-1.343-.65-2.674-.65-4.016-.01-2.39-.83-4.096-2.969-4.756-.716-.433-1.206-.751-1.729-1.024"/><path d="M183.21 321.357c-.238.227-.363.58-.534.876-.011-.012-.023-.023-.034-.023-.33.649-.83 1.274-.933 1.968-.103.638 0 1.593.41 1.969.773.694 1.808 1.149 2.798 1.547.82.33 2.242-.683 2.208-1.604-.046-1.456-.126-2.958-.547-4.324-.204-.66-1.16-1.263-1.911-1.513-.319-.114-.99.671-1.456 1.104m9.591 254.856c168.226-68.305 470.17-68.305 638.396 0 3.413 2.134 37.813 18.347 34.4 20.48-169.933-73.173-537.268-73.173-707.2 0-3.414-2.133 30.986-18.346 34.399-20.48z"/><path d="m167.296 608.53 7.633 10.232h101.632l3.35-10.233zm19.083 25.6 7.633 10.232h74.167l3.35-10.233zm19.083 25.6 7.634 10.232h46.7l3.35-10.233zm557.238-51.2-3.35 10.232h89.968l7.616-10.233zm-8.383 25.6-3.35 10.232h79.267l7.617-10.233zm-8.383 25.6-3.35 10.232h68.567l7.617-10.233zm-448.709 11.246-7.168 21.822h79.007l2.867-.796q.956-.319 3.027-1.274 2.07-.956 2.548-1.275 4.938-2.389 8.443-5.893t5.894-7.646 3.982-8.602q1.752-4.46 3.186-8.761l3.185-9.876q.637-4.141 0-7.964-.478-3.823-2.389-6.85-1.752-3.026-5.097-4.778t-8.283-1.752h-43.168q-.16 0-.637-.478-.319-.637-.637-.797l-.638-.955q-.318-.638-.159-1.275l3.664-10.831q.16-.637.956-1.434t1.752-1.433q.955-.797 1.911-1.275t1.593-.477h61.804l7.01-21.664h-76.619q-1.274 0-3.664.478-2.389.478-3.982 1.274-5.894 2.23-9.717 5.416-3.823 3.026-6.53 6.85-2.55 3.663-4.302 8.123-1.592 4.46-3.185 9.24l-3.345 10.194q-.797 4.142 0 8.124.796 3.823 3.026 6.85 2.23 2.866 5.575 4.778 3.505 1.752 8.124 1.752h41.415q.796 0 2.07 1.274 1.275 1.275.956 2.549l-4.3 12.902q-.16.319-.956 1.115-.637.797-1.593 1.593-.797.637-1.752 1.275-.797.477-1.275.477zm96.87 21.822h96.367l7.327-21.982h-59.893l79.964-62.122 7.008-21.982h-96.367l-7.168 22.141h60.212l-80.123 61.963zm137.173-106.086h31.858l-25.168 77.255q-.477 1.433 0 2.867t1.434 2.549q.956.955 2.23 1.592 1.434.638 2.867.638h20.389q1.115 0 2.708-.638 1.752-.796 3.345-1.911t2.867-2.39q1.434-1.274 2.07-2.548l25.168-77.414h31.38l-26.92 82.352q-1.275 3.983-4.46 8.283-3.186 4.142-7.487 7.646-4.142 3.345-8.92 5.575-4.62 2.23-8.761 2.23h-57.185q-4.778 0-8.123-2.23-3.186-2.39-4.938-6.053-1.752-3.823-1.912-8.283t1.275-8.76zm107.384 0h96.367l-7.01 21.982h-31.538l-27.557 84.104h-31.857l27.556-84.104H631.64zM409.284 732.885c-4.946 0-9.533 1.284-13.733 3.85q-6.298 3.852-9.867 11.134c-2.356 4.83-3.533 10.15-3.533 15.983q0 10.78 5.283 16.45c3.547 3.78 8.457 5.683 14.734 5.683 5.577 0 10.447-1.517 14.6-4.55 4.153-3.057 7.273-7.47 9.35-13.234l-10.65-1.616c-1.12 3.476-2.813 6.11-5.1 7.883-2.263 1.773-4.77 2.65-7.5 2.65-2.94 0-5.4-1.11-7.383-3.35-1.96-2.24-2.934-5.427-2.934-9.533 0-3.757.75-7.51 2.267-11.267 1.517-3.78 3.547-6.543 6.067-8.317 2.543-1.773 5.266-2.666 8.183-2.666q3.988.002 6.367 2.033c1.61 1.33 2.706 3.48 3.266 6.467l10.1-.984c-.606-5.133-2.62-9.17-6.05-12.133-3.43-2.987-7.913-4.484-13.466-4.484zm-58.75.867-29.017 51.317h10.85l6.15-11.333h20.334l1.716 11.333h10.017l-8.334-51.317zm91.486 0-10.7 51.317h9.516l8.15-42.866 1.867 42.866h10l20.267-42.567-10.116 42.567h9.633l10.733-51.317h-15.217l-17.5 35.95-1.583-35.95zm78.966 0-1.783 8.584h15.05l-8.95 42.733h10.567l8.917-42.733h14.85l1.783-8.584zm-166.4 10.784 2.984 20.65h-15.367zm223.3 2.483q-10.71 0-16.482 8.05-4.235 5.952-4.234 13.583c0 5.204 1.557 9.394 4.684 12.567 3.126 3.15 7.19 4.717 12.183 4.717 3.64 0 6.917-.887 9.833-2.683 2.94-1.82 5.283-4.534 7.033-8.15l-9-1.517c-1.867 3.453-4.463 5.183-7.8 5.183-2.03 0-3.76-.766-5.183-2.283q-2.1-2.275-2.1-5.983c0-.21.01-.504.033-.9h25.2c.467-1.937.7-4.124.7-6.55 0-5.064-1.333-9-4.017-11.8q-4.025-4.235-10.85-4.234m40.45 0c-4.596 0-8.3.933-11.1 2.8-2.776 1.867-4.73 4.453-5.85 7.767l9.8.85q.56-2.032 2.1-3.117 1.573-1.119 4.267-1.117 2.554-.001 3.85 1.084c.863.723 1.3 1.626 1.3 2.7 0 .84-.214 1.95-.634 3.35-1.61.56-4.8 1.036-9.583 1.433-5.67.443-9.617 1.727-11.833 3.85-2.193 2.123-3.283 4.97-3.283 8.517 0 3.173.993 5.77 3 7.8 2.006 2.006 4.553 3 7.633 3 1.937 0 3.87-.42 5.783-1.284 1.914-.886 3.597-2.15 5.067-3.783a19.3 19.3 0 0 0 .733 4.2h9.767c-.56-1.937-.834-3.697-.834-5.283 0-1.774.487-4.884 1.467-9.317 1.19-5.367 1.88-8.673 2.067-9.934q.316-1.888.316-3.566-.001-4.164-3.433-7.034c-2.287-1.936-5.817-2.916-10.6-2.916m47.4 0c-4.06 0-7.93 1.807-11.616 5.4l.95-4.517h-9.45l-7.766 37.167h10.033l3.567-17.084c.63-2.963 1.086-4.86 1.366-5.7.63-1.796 1.387-3.273 2.25-4.416.887-1.144 1.917-2.03 3.084-2.684s2.286-.983 3.383-.983c1.167 0 2.08.303 2.733.933q1.016.946 1.017 2.417c0 .77-.263 2.46-.8 5.05l-4.7 22.467h10.05l3.533-16.867c1.003-4.807 2.21-8.16 3.633-10.05 1.96-2.637 4.204-3.95 6.7-3.95 1.237 0 2.144.293 2.75.9.63.583.95 1.39.95 2.417 0 .373-.283 1.986-.866 4.833l-4.767 22.717h10.05l4.75-22.717q.981-4.725.983-6.65.001-3.92-2.483-6.3-2.487-2.382-6.933-2.383c-2.59 0-5.08.64-7.484 1.9s-4.25 2.816-5.533 4.683c-.42-2.053-1.383-3.667-2.9-4.833s-3.683-1.75-6.483-1.75zm-88.934 7.183c2.077 0 3.73.69 4.967 2.067s1.85 3.43 1.85 6.183q.001.352-.034 1.017H567.87c.583-3.057 1.7-5.353 3.333-6.917 1.657-1.563 3.523-2.35 5.6-2.35m-311.748 8.6-2.417 7.35h37.3l2.417-7.35zm458.786 0-2.4 7.35h37.433l2.35-7.183v-.167zm-103.083 4.95-.283 1.317c-.513 2.45-1.107 4.267-1.783 5.433-.654 1.144-1.664 2.087-3.017 2.834a8.8 8.8 0 0 1-4.267 1.083c-1.376 0-2.493-.39-3.333-1.183-.84-.817-1.25-1.817-1.25-2.984 0-1.423.537-2.56 1.633-3.4 1.54-1.166 4.844-2.043 9.884-2.65 1.003-.14 1.81-.287 2.416-.45"/><path fill="#4c82c3" d="M271.299 523.787c-.694 0-1.345.097-1.938.29-.55.177-1.022.42-1.397.719a3 3 0 0 0-.807.946 1.9 1.9 0 0 0-.235.931c0 .285.057.52.182.738.177.311.42.583.745.83.35.264.804.475 1.35.63 1.26.357 2.934.359 4.165.004.537-.155.986-.368 1.338-.635a2.7 2.7 0 0 0 .745-.826 1.44 1.44 0 0 0 .185-.74c0-.337-.076-.634-.236-.932a3 3 0 0 0-.801-.943 4.5 4.5 0 0 0-1.399-.73 6.1 6.1 0 0 0-1.897-.282m0 10.615c-1.245 0-2.434-.16-3.534-.469-1.182-.334-2.223-.84-3.094-1.503a8 8 0 0 1-2.14-2.42 6.66 6.66 0 0 1-.87-3.337c0-1.21.292-2.363.866-3.427a8.3 8.3 0 0 1 2.179-2.58c.859-.682 1.882-1.22 3.032-1.594 2.243-.726 4.9-.722 7.109.004 1.136.376 2.146.911 3.009 1.595a8.3 8.3 0 0 1 2.17 2.576 7.15 7.15 0 0 1 .866 3.426 6.7 6.7 0 0 1-.87 3.336 8 8 0 0 1-2.14 2.42c-.871.662-1.9 1.166-3.06 1.5a12.7 12.7 0 0 1-3.523.473m26.828-25.597c-.889 0-1.724.125-2.487.371-.723.236-1.344.557-1.844.953a4.1 4.1 0 0 0-1.104 1.298c-.231.431-.345.88-.345 1.367 0 .437.092.803.29 1.15.246.432.584.81 1.034 1.151.468.356 1.071.64 1.79.842 1.613.459 3.723.46 5.287.006l.005-.001c.704-.204 1.301-.488 1.774-.847.45-.343.79-.719 1.034-1.15.197-.348.29-.714.29-1.15 0-.49-.113-.938-.346-1.37a4.1 4.1 0 0 0-1.1-1.292c-.506-.402-1.123-.725-1.837-.963-.736-.243-1.558-.365-2.441-.365m0 12.738c-1.449 0-2.828-.183-4.1-.545-1.353-.381-2.545-.958-3.539-1.715a9.1 9.1 0 0 1-2.426-2.742 7.5 7.5 0 0 1-.975-3.747c0-1.357.327-2.656.973-3.858a9.4 9.4 0 0 1 2.476-2.935c.985-.78 2.156-1.395 3.479-1.827 2.585-.838 5.667-.835 8.206.004 1.303.431 2.461 1.045 3.446 1.826a9.4 9.4 0 0 1 2.47 2.93 8.1 8.1 0 0 1 .973 3.86 7.5 7.5 0 0 1-.973 3.745 9.1 9.1 0 0 1-2.428 2.744c-.992.753-2.169 1.328-3.498 1.712-1.257.364-2.63.548-4.084.548m30.856-24.165c-1.12 0-2.177.159-3.143.472-.93.303-1.731.718-2.381 1.231a5.5 5.5 0 0 0-1.459 1.721 3.9 3.9 0 0 0-.476 1.892c0 .61.135 1.145.414 1.636.332.583.782 1.088 1.382 1.543.615.467 1.397.837 2.323 1.099 2.021.575 4.67.575 6.633.005l.003-.002c.908-.261 1.685-.633 2.308-1.105.596-.454 1.048-.96 1.376-1.537.28-.494.416-1.03.416-1.639a3.9 3.9 0 0 0-.477-1.892 5.5 5.5 0 0 0-1.46-1.722c-.65-.514-1.446-.931-2.363-1.235-.936-.31-1.98-.467-3.096-.467m0 15.286c-1.694 0-3.3-.212-4.775-.632-1.558-.441-2.929-1.105-4.068-1.97-1.167-.885-2.1-1.94-2.777-3.136a8.46 8.46 0 0 1-1.1-4.232c0-1.546.372-3.022 1.105-4.384a10.8 10.8 0 0 1 2.83-3.357c1.138-.898 2.488-1.606 4.015-2.104 2.993-.973 6.576-.97 9.522.003 1.502.5 2.837 1.207 3.97 2.101a10.8 10.8 0 0 1 2.83 3.357 9.15 9.15 0 0 1 1.104 4.384c0 1.518-.37 2.942-1.1 4.232-.676 1.194-1.61 2.248-2.772 3.133-1.145.867-2.5 1.53-4.03 1.97-1.456.423-3.056.635-4.754.635m-53.6-165.966a20.784 20.784 0 0 0-20.783 20.783v84.367a20.784 20.784 0 0 0 20.783 20.783h30.683c-1.463-1.58-2.663-3.319-3.566-5.217-.547-1.148-.964-2.382-1.3-3.65-17.054-1.624-27.97-11.185-29.15-22.033-.962-8.839 5.086-18.948 20.216-24.433-2.441-5.94-2.22-12.394 1.034-17.933 4.555-7.754 13.44-12.478 22.3-12.167 1.266.044 2.531.194 3.783.45 4.843.987 8.905 3.714 11.784 7.583.284-.202.55-.424.85-.616 3.179-2.044 7.105-3.5 11.216-4.017 4.111-.516 8.494-.09 12.2 2.217a12.8 12.8 0 0 1 3.317 2.983c14.905-9.82 32.303-7.972 44.55.133a40 40 0 0 1 5.733 4.6 34.6 34.6 0 0 1 4.483 5.284V367.48a20.784 20.784 0 0 0-20.783-20.783H275.386zm40.017 47.35c-6.221-.122-13.089 3.443-16.217 8.767-2.71 4.615-2.516 9.446.767 14.6a3.414 3.414 0 0 1-1.967 5.117c-16.158 4.511-19.79 12.572-19.15 18.45.762 7.011 9.002 15.555 25.334 16.25a3.414 3.414 0 0 1 3.25 3.016c.172 1.478.604 2.878 1.25 4.233 1.412 2.968 3.912 5.513 7.733 7.434.521.262 1.05.493 1.6.717h21.85a21 21 0 0 0 3.8-1.95 3.41 3.41 0 0 1 3.433-.184c1.498.769 2.972 1.475 4.417 2.134h41.233a20.8 20.8 0 0 0 12.684-4.317 30 30 0 0 0 2-2.6c6.605-9.656 6.239-21.25.233-27.867a3.414 3.414 0 0 1-.15-4.416c3.965-5.01 4.906-9.985 4.1-14.817s-3.53-9.526-7.3-13.167a33.4 33.4 0 0 0-4.767-3.816c-10.971-7.262-26.52-8.733-39.783 1.866a3.414 3.414 0 0 1-5.4-1.633c-.45-1.428-1.212-2.436-2.517-3.25-1.906-1.187-4.728-1.613-7.75-1.233s-6.165 1.557-8.383 2.983c-1.145.735-2.071 1.526-2.783 2.333a3.414 3.414 0 0 1-5.65-.816c-1.954-4.206-4.982-6.68-9.25-7.55a14.5 14.5 0 0 0-2.617-.284"/><path fill="#4c82c3" d="M315.749 382.064c-10.838-.454-21.242 5.125-26.867 14.7-3.144 5.354-3.963 11.634-2.783 17.6-13.612 6.544-20.275 17.578-19.15 27.917 1.432 13.174 13.42 23.542 30.5 26.217.154.364.249.764.417 1.117 2.652 5.572 7.35 10.05 13.15 12.966h.016c10.994 5.53 24.088 5.67 34.883.5 12.125 5.611 23.248 8.3 33.15 8.3 17.345-.002 30.81-8.114 38.2-18.916 7.865-11.497 9.236-25.975 3.1-37.1 3.106-6.104 4.018-12.716 3.017-18.717-1.31-7.854-5.424-14.626-10.783-19.8a45.4 45.4 0 0 0-6.483-5.183c-12.814-8.48-30.845-10.745-46.684-2.217-.432-.33-.84-.696-1.3-.983-5.056-3.147-10.605-3.57-15.533-2.95a32.3 32.3 0 0 0-10.517 3.183c-3.259-2.99-7.255-5.164-11.683-6.067a29.4 29.4 0 0 0-4.65-.566zm-.15 5.133a23 23 0 0 1 3.783.45c4.842.988 8.905 3.714 11.783 7.584.285-.203.551-.425.85-.617 3.18-2.044 7.106-3.5 11.217-4.017 4.11-.516 8.493-.09 12.2 2.217a12.8 12.8 0 0 1 3.317 2.983c14.904-9.82 32.303-7.971 44.55.134a40 40 0 0 1 5.733 4.6c4.678 4.517 8.206 10.39 9.3 16.95.973 5.835-.133 12.197-3.95 18.033 6.685 9.42 6.173 23.078-1.333 34.05-6.48 9.47-18.167 16.698-33.984 16.7-9.654 0-20.845-2.737-33.4-8.917-9.487 5.342-22.288 5.72-32.333.667-4.952-2.49-8.712-6.144-10.834-10.6-.547-1.149-.963-2.382-1.3-3.65-17.053-1.624-27.97-11.186-29.15-22.033-.961-8.84 5.087-18.948 20.217-24.433-2.441-5.94-2.22-12.394 1.034-17.934 4.554-7.753 13.44-12.478 22.3-12.167m-.2 6.85c-6.222-.122-13.089 3.443-16.217 8.767-2.71 4.615-2.516 9.446.767 14.6a3.414 3.414 0 0 1-1.967 5.117c-16.159 4.511-19.79 12.572-19.15 18.45.762 7.011 9.002 15.555 25.333 16.25a3.414 3.414 0 0 1 3.25 3.016c.173 1.478.605 2.878 1.25 4.233 1.413 2.968 3.913 5.513 7.734 7.434 8.192 4.121 20.12 3.45 27.25-1.233a3.41 3.41 0 0 1 3.433-.184c12.512 6.421 23.184 8.933 31.983 8.933 13.781-.001 23.086-6.022 28.35-13.716 6.606-9.657 6.24-21.25.234-27.867a3.414 3.414 0 0 1-.15-4.416c3.965-5.01 4.906-9.985 4.1-14.817s-3.53-9.527-7.3-13.167a33.4 33.4 0 0 0-4.767-3.817c-10.971-7.26-26.52-8.732-39.783 1.867a3.414 3.414 0 0 1-5.4-1.633c-.451-1.428-1.212-2.436-2.517-3.25-1.906-1.187-4.728-1.613-7.75-1.234-3.022.38-6.165 1.558-8.383 2.984-1.145.735-2.071 1.526-2.783 2.333a3.414 3.414 0 0 1-5.65-.817c-1.954-4.205-4.982-6.68-9.25-7.55a14.5 14.5 0 0 0-2.617-.283"/><path fill="#fdba11" d="M494.367 385.571c.85.364 1.483 1.171 1.596 2.09l2.823 23.027h9.95V383.6c0-.81.377-1.574 1.02-2.066l4.665-3.573-13.843-4.112a2.603 2.603 0 0 1-.314-4.875l13.171-5.841-11.55-3.383a2.6 2.6 0 0 1-1.774-1.799 2.6 2.6 0 0 1 .586-2.457l8.039-8.793h-41.027c.656 16.976 10.954 32.112 26.658 38.87"/><path fill="#fdba11" d="M521.716 360.133a2.604 2.604 0 0 1 .323 4.879l-13.209 5.858 11.969 3.554a2.605 2.605 0 0 1 .843 4.563l-7.703 5.899v25.802h10.883l2.796-22.958c.113-.92.71-1.768 1.563-2.132 15.743-6.748 26.063-21.894 26.72-38.897h-40.112l-8.436 9.226z"/><path fill="#fdba11" d="M527.469 427.042h-31.325a2.604 2.604 0 1 1 0-5.208h31.325a2.603 2.603 0 1 1 0 5.208m0 10.067h-31.325a2.603 2.603 0 1 1 0-5.207h31.325a2.603 2.603 0 1 1 0 5.207m0 10.068h-31.325a2.603 2.603 0 1 1 0-5.208h31.325a2.603 2.603 0 1 1 0 5.208m-10.066 10.067h-11.192a2.604 2.604 0 1 1 0-5.207h11.192a2.603 2.603 0 1 1 0 5.207M570.677 346.7h-9.563c-.642 18.589-11.614 35.216-28.494 43.065l-2.904 23.843a2.604 2.604 0 0 1-2.585 2.288h-30.649a2.604 2.604 0 0 1-2.584-2.287l-2.925-23.858A49.34 49.34 0 0 1 462.5 346.7h-9.17c-11.43 0-20.784 9.352-20.784 20.783v84.372c0 11.431 9.353 20.784 20.784 20.784h117.347c11.43 0 20.783-9.353 20.783-20.784v-84.372c0-11.431-9.352-20.784-20.783-20.784zm-106.481-19.444a2.7 2.7 0 0 1-1.035-.207l-28.187-11.676a2.705 2.705 0 1 1 2.07-5l28.187 11.677a2.704 2.704 0 0 1 1.465 3.534 2.71 2.71 0 0 1-2.5 1.672m11.171-16.718a2.7 2.7 0 0 1-1.913-.792l-21.247-21.247c-.529-.528-.794-1.22-.794-1.913s.265-1.383.794-1.912a2.704 2.704 0 0 1 3.825 0l21.248 21.246a2.7 2.7 0 0 1 .792 1.913c0 .694-.264 1.384-.792 1.913s-1.221.792-1.913.792m16.713-11.166c-1.063 0-2.07-.63-2.501-1.672l-11.412-27.55a2.703 2.703 0 0 1 1.465-3.534 2.703 2.703 0 0 1 3.534 1.464l11.411 27.551a2.706 2.706 0 0 1-2.498 3.741m19.721-3.926a2.705 2.705 0 0 1-2.705-2.705v-29.79a2.705 2.705 0 0 1 5.412 0v29.79a2.705 2.705 0 0 1-2.706 2.705m19.715 3.926a2.71 2.71 0 0 1-2.704-2.708c0-.344.067-.695.207-1.033l11.481-27.72a2.705 2.705 0 0 1 5 2.069l-11.483 27.72a2.7 2.7 0 0 1-2.5 1.672m16.717 11.166c-.692 0-1.384-.264-1.912-.792s-.792-1.22-.792-1.913c0-.692.263-1.383.792-1.913l21.49-21.49a2.703 2.703 0 0 1 4.618 1.912c0 .692-.262 1.384-.792 1.913l-21.49 21.49a2.7 2.7 0 0 1-1.914.793m11.166 16.718a2.705 2.705 0 0 1-2.708-2.706c0-1.061.63-2.069 1.672-2.5l28.61-11.852a2.7 2.7 0 0 1 3.533 1.465 2.7 2.7 0 0 1-1.464 3.534l-28.61 11.851a2.7 2.7 0 0 1-1.033.208"/><path fill="#b22d1b" d="M631.266 346.716c-11.478 0-20.783 9.305-20.783 20.784v84.366c0 11.478 9.305 20.783 20.783 20.783h90.1c8.92-8.603 15.176-17.656 15.95-25.466.899-9.051-4.706-18.35-20.05-28.284-2.593-1.64-7.866-5.232-12.65-10.5h-.016c-3.246-3.589-5.697-7.439-7.166-11.5h-4.684a8.25 8.25 0 0 1-6.8-3.583c-.507-.743-.828-1.57-1.066-2.417-.815.1-1.626.2-2.417.2-3.578 0-6.896-1.059-9.417-3.083-4.295-3.452-5.72-9.82-3.166-14.75.958-1.85 2.367-3.42 4.1-4.683-6.199-6.2-11.367-13.69-15-21.867zm117.948.017c-3.632 8.172-8.79 15.654-14.983 21.85 1.724 1.259 3.11 2.809 4.067 4.65h.016c2.556 4.926 1.13 11.31-3.166 14.766-2.526 2.033-5.836 3.1-9.417 3.1-.786 0-1.59-.117-2.4-.216-.238.848-.559 1.688-1.067 2.433-1.356 1.988-3.537 3.202-5.9 3.467.948 1.132 1.957 2.24 3 3.183 2.036 1.845 4.341 3.559 6.567 4.967l.016.016c.041.026.074.034.1.05.03.02.095.075.084.067 18.828 12.171 29.174 27.223 27.533 43.733-.816 8.217-4.28 16.133-10.167 23.85h5.117c11.478 0 20.783-9.305 20.783-20.783V367.5c0-11.276-8.985-20.447-20.183-20.767"/><path fill="#b22d1b" d="M709.346 372.78c-.02.007-.034.024-.054.032a2.2 2.2 0 0 0-.668.396q-.037.029-.072.059a2.2 2.2 0 0 0-.507.69q0 .003-.003.005l-.003.014c-.067.146-.13.293-.164.454-.027.12-.022.24-.027.36-.001.025-.006.049-.006.075-.004.294.042.58.148.85l.001.006 4.185 10.7h-16.144l4.184-10.7c.005-.013.002-.028.008-.04.093-.25.135-.512.135-.78 0-.057-.008-.11-.012-.167-.007-.103-.001-.207-.023-.31-.03-.134-.087-.258-.14-.382-.01-.026-.007-.055-.018-.08-.005-.011-.016-.018-.02-.028a2.3 2.3 0 0 0-.482-.657c-.033-.03-.066-.053-.1-.081a2.2 2.2 0 0 0-.648-.384c-.02-.008-.034-.026-.055-.033-18.699-6.494-34.154-28.584-35.185-50.286-.512-10.822 2.876-20.38 9.8-27.643 7.507-7.87 18.37-12.205 30.666-12.205 12.22 0 23.083 4.335 30.59 12.205 6.924 7.263 10.312 16.82 9.8 27.643-1.03 21.702-16.486 43.792-35.185 50.286zm19.67 5.276c.437.842.009 1.434-.425 1.785-1.492 1.204-6.171 1.8-13.613-3.82 8.564-1.666 13.057.141 14.037 2.035m-49.406 1.796c-.434-.348-.861-.942-.427-1.782.71-1.371 3.26-2.7 7.859-2.7 1.756 0 3.81.193 6.178.651-7.437 5.62-12.113 5.038-13.61 3.831m69.414-57.14c.575-12.08-3.241-22.786-11.036-30.958-8.363-8.768-20.382-13.599-33.92-13.599-13.46 0-25.477 4.83-33.84 13.6-7.795 8.172-11.611 18.877-11.037 30.957.89 18.729 11.827 37.721 26.564 48.188-5.798.278-9.19 2.468-10.557 5.107-1.328 2.564-.683 5.518 1.602 7.355 1.322 1.062 3.242 1.764 5.666 1.764 2.891 0 6.502-1.01 10.658-3.593l-2.472 6.323a2.245 2.245 0 0 0 2.093 3.066h9.285c.567 4.431 2.969 9.003 7.007 13.467 4.198 4.623 9.112 8.002 11.421 9.463 16.316 10.549 23.987 21.958 22.801 33.91-2.954 29.772-57.933 58.257-75.798 66.114 0 0 14.255-1.316 36.33-15.816 27.553-16.937 42.337-33.71 43.94-49.853 1.368-13.765-6.988-26.594-24.835-38.13l-.155-.1a54.5 54.5 0 0 1-7.382-5.59c-3.672-3.32-7.886-8.155-8.798-13.467h8.91a2.248 2.248 0 0 0 2.094-3.066l-2.472-6.32c4.15 2.573 7.755 3.58 10.644 3.58 2.427 0 4.352-.703 5.677-1.77 2.284-1.836 2.926-4.792 1.596-7.355-1.369-2.635-4.755-4.821-10.536-5.1 14.73-10.468 25.661-29.455 26.55-48.179z"/></svg>